<svg xmlns="http://www.w3.org/2000/svg" viewBox="0 0 64 64" fill="none">
  <polygon points="32,4 58,18 58,46 32,60 6,46 6,18" fill="#2563EB" stroke="#60A5FA" stroke-width="2"/>
  <circle cx="32" cy="32" r="6" fill="none" stroke="#93C5FD" stroke-width="1.5" opacity="0.9"/>
  <circle cx="32" cy="32" r="12" fill="none" stroke="#93C5FD" stroke-width="1" opacity="0.7"/>
  <circle cx="32" cy="32" r="18" fill="none" stroke="#93C5FD" stroke-width="0.8" opacity="0.4"/>
  <ellipse cx="32" cy="20" rx="3" ry="8" fill="#93C5FD" opacity="0.5"/>
  <ellipse cx="32" cy="20" rx="3" ry="8" fill="#93C5FD" opacity="0.5" transform="rotate(60 32 32)"/>
  <ellipse cx="32" cy="20" rx="3" ry="8" fill="#93C5FD" opacity="0.5" transform="rotate(120 32 32)"/>
  <ellipse cx="32" cy="20" rx="3" ry="8" fill="#93C5FD" opacity="0.5" transform="rotate(180 32 32)"/>
  <ellipse cx="32" cy="20" rx="3" ry="8" fill="#93C5FD" opacity="0.5" transform="rotate(240 32 32)"/>
  <ellipse cx="32" cy="20" rx="3" ry="8" fill="#93C5FD" opacity="0.5" transform="rotate(300 32 32)"/>
  <circle cx="32" cy="32" r="3" fill="#DBEAFE"/>
</svg>
